<?xml version="1.0" encoding="UTF-8"?>
<svg version="1.1" xmlns="http://www.w3.org/2000/svg" width="500" height="500">
<path d="M0 0 C165 0 330 0 500 0 C500 165 500 330 500 500 C335 500 170 500 0 500 C0 335 0 170 0 0 Z " fill="#FEFEFE" transform="translate(0,0)"/>
<path d="M0 0 C0.71220703 -0.03738281 1.42441406 -0.07476562 2.15820312 -0.11328125 C6.18880051 -0.18039573 7.95535745 0.19093975 11.1484375 2.72265625 C13.22330624 5.42157555 13.90008178 7.02178742 14.1875 10.375 C10.7225 13.345 10.7225 13.345 7.1875 16.375 C8.24303345 20.64200103 8.24303345 20.64200103 11.375 23.0625 C15.03085714 26.02164666 17.3731826 29.25441303 19.8359375 33.23828125 C21.22854194 35.55497847 21.22854194 35.55497847 23.5 38.0625 C25.8201859 42.61693898 25.69178653 46.81511755 25.90625 51.87109375 C26.27465885 56.46085405 27.49709992 60.11225198 29.1875 64.375 C29.86554688 64.29378906 30.54359375 64.21257812 31.2421875 64.12890625 C38.12828495 63.66156723 42.81390848 64.72194977 48.34765625 68.953125 C51.84754481 73.56019698 50.92896725 78.89638084 50.1875 84.375 C48.23184742 84.76373828 46.27283496 85.13560833 44.3125 85.5 C42.67667969 85.81324219 42.67667969 85.81324219 41.0078125 86.1328125 C39.61175781 86.25269531 39.61175781 86.25269531 38.1875 86.375 C37.5275 85.715 36.8675 85.055 36.1875 84.375 C41.6325 83.385 41.6325 83.385 47.1875 82.375 C45.2075 82.045 43.2275 81.715 41.1875 81.375 C44.9375 79.375 44.9375 79.375 47.1875 79.375 C47.1875 78.715 47.1875 78.055 47.1875 77.375 C46.58421875 77.60316406 45.9809375 77.83132812 45.359375 78.06640625 C44.56015625 78.35386719 43.7609375 78.64132813 42.9375 78.9375 C42.14859375 79.22753906 41.3596875 79.51757812 40.546875 79.81640625 C38.1875 80.375 38.1875 80.375 34.1875 79.375 C38.1475 78.055 42.1075 76.735 46.1875 75.375 C45.5275 74.715 44.8675 74.055 44.1875 73.375 C44.1875 72.385 44.1875 71.395 44.1875 70.375 C41.46777329 68.14976906 39.48450855 67.41576588 36 66.9375 C30.96907677 67.51481906 26.7778108 69.30612753 22.1875 71.375 C23.8375 73.355 25.4875 75.335 27.1875 77.375 C24.1875 77.375 24.1875 77.375 21.4375 75.3125 C17.42584432 72.92093604 15.63069475 73.26420131 11.1875 74.375 C10.1975 74.87 10.1975 74.87 9.1875 75.375 C9.1875 76.365 9.1875 77.355 9.1875 78.375 C8.63030273 78.0445166 8.07310547 77.7140332 7.49902344 77.37353516 C4.80825328 76.21117247 3.11485485 76.220893 0.203125 76.3984375 C-0.73144531 76.45 -1.66601562 76.5015625 -2.62890625 76.5546875 C-4.08103516 76.65136719 -4.08103516 76.65136719 -5.5625 76.75 C-6.54605469 76.80671875 -7.52960938 76.8634375 -8.54296875 76.921875 C-10.966911 77.06307552 -13.38977459 77.21445795 -15.8125 77.375 C-15.4825 78.695 -15.1525 80.015 -14.8125 81.375 C-16.1325 81.045 -17.4525 80.715 -18.8125 80.375 C-15.3475 84.83 -15.3475 84.83 -11.8125 89.375 C-12.1425 90.035 -12.4725 90.695 -12.8125 91.375 C-14.4625 90.055 -16.1125 88.735 -17.8125 87.375 C-17.25820312 87.98988281 -16.70390625 88.60476562 -16.1328125 89.23828125 C-15.40835938 90.04652344 -14.68390625 90.85476562 -13.9375 91.6875 C-13.21820313 92.48800781 -12.49890625 93.28851563 -11.7578125 94.11328125 C-9.8125 96.375 -9.8125 96.375 -7.8125 99.375 C-3.34878239 98.79364756 0.32477814 97.62602434 4.4375 95.8125 C9.98919972 93.375 9.98919972 93.375 12.1875 93.375 C12.1875 94.035 12.1875 94.695 12.1875 95.375 C11.30707031 95.70113281 10.42664063 96.02726562 9.51953125 96.36328125 C8.35808594 96.80027344 7.19664062 97.23726563 6 97.6875 C4.85144531 98.11675781 3.70289063 98.54601562 2.51953125 98.98828125 C-0.7921491 100.26740884 -0.7921491 100.26740884 -3.55078125 102.04296875 C-5.8125 103.375 -5.8125 103.375 -8.8125 103.375 C-10.49609375 101.07421875 -10.49609375 101.07421875 -12.25 98.0625 C-15.19261408 92.88903546 -15.19261408 92.88903546 -19.8125 89.375 C-22.43831229 89.03090859 -24.87040533 88.8200558 -27.5 88.75 C-34.7071793 88.4803207 -34.7071793 88.4803207 -35.8125 87.375 C-36.125 85.0625 -36.125 85.0625 -35.8125 82.375 C-35.1525 81.7975 -34.4925 81.22 -33.8125 80.625 C-31.46564914 77.98479278 -31.58542488 77.39116225 -31.6875 74 C-31.74679688 73.27039063 -31.80609375 72.54078125 -31.8671875 71.7890625 C-31.8125 69.375 -31.8125 69.375 -30.84765625 66.66796875 C-29.2890218 61.70974669 -29.42098249 56.79298384 -29.33398438 51.62695312 C-29.10731974 44.75514477 -28.10792465 38.21052457 -23.6875 32.75 C-20.44408991 30.07066123 -17.15346232 27.46705715 -13.80078125 24.92578125 C-11.73795619 23.38224714 -11.73795619 23.38224714 -9.8125 21.375 C-9.6634288 19.3004644 -9.6634288 19.3004644 -10.8125 17.375 C-13.80865946 16.0704344 -13.80865946 16.0704344 -16.8125 15.375 C-17.8125 12.3125 -17.8125 12.3125 -17.8125 8.375 C-12.63247735 2.11221727 -7.91972339 0.15515041 0 0 Z " fill="#F9F9FA" transform="translate(121.8125,163.625)"/>
<path d="M0 0 C0.71220703 -0.03738281 1.42441406 -0.07476562 2.15820312 -0.11328125 C6.18880051 -0.18039573 7.95535745 0.19093975 11.1484375 2.72265625 C13.22330624 5.42157555 13.90008178 7.02178742 14.1875 10.375 C10.7225 13.345 10.7225 13.345 7.1875 16.375 C8.24303345 20.64200103 8.24303345 20.64200103 11.375 23.0625 C15.03085714 26.02164666 17.3731826 29.25441303 19.8359375 33.23828125 C21.22854194 35.55497847 21.22854194 35.55497847 23.5 38.0625 C25.8201859 42.61693898 25.69178653 46.81511755 25.90625 51.87109375 C26.27465885 56.46085405 27.49709992 60.11225198 29.1875 64.375 C29.86554688 64.29378906 30.54359375 64.21257812 31.2421875 64.12890625 C38.12828495 63.66156723 42.81390848 64.72194977 48.34765625 68.953125 C51.84754481 73.56019698 50.92896725 78.89638084 50.1875 84.375 C48.23184742 84.76373828 46.27283496 85.13560833 44.3125 85.5 C42.67667969 85.81324219 42.67667969 85.81324219 41.0078125 86.1328125 C39.61175781 86.25269531 39.61175781 86.25269531 38.1875 86.375 C37.5275 85.715 36.8675 85.055 36.1875 84.375 C41.6325 83.385 41.6325 83.385 47.1875 82.375 C45.2075 82.045 43.2275 81.715 41.1875 81.375 C44.9375 79.375 44.9375 79.375 47.1875 79.375 C47.1875 78.715 47.1875 78.055 47.1875 77.375 C46.58421875 77.60316406 45.9809375 77.83132812 45.359375 78.06640625 C44.56015625 78.35386719 43.7609375 78.64132813 42.9375 78.9375 C42.14859375 79.22753906 41.3596875 79.51757812 40.546875 79.81640625 C38.1875 80.375 38.1875 80.375 34.1875 79.375 C38.1475 78.055 42.1075 76.735 46.1875 75.375 C45.5275 74.715 44.8675 74.055 44.1875 73.375 C44.1875 72.385 44.1875 71.395 44.1875 70.375 C41.46777329 68.14976906 39.48450855 67.41576588 36 66.9375 C30.96907677 67.51481906 26.7778108 69.30612753 22.1875 71.375 C23.8375 73.355 25.4875 75.335 27.1875 77.375 C24.1875 77.375 24.1875 77.375 21.4375 75.3125 C17.42584432 72.92093604 15.63069475 73.26420131 11.1875 74.375 C10.1975 74.87 10.1975 74.87 9.1875 75.375 C9.1875 76.365 9.1875 77.355 9.1875 78.375 C8.63030273 78.0445166 8.07310547 77.7140332 7.49902344 77.37353516 C4.80825328 76.21117247 3.11485485 76.220893 0.203125 76.3984375 C-0.73144531 76.45 -1.66601562 76.5015625 -2.62890625 76.5546875 C-4.08103516 76.65136719 -4.08103516 76.65136719 -5.5625 76.75 C-6.54605469 76.80671875 -7.52960938 76.8634375 -8.54296875 76.921875 C-10.966911 77.06307552 -13.38977459 77.21445795 -15.8125 77.375 C-15.4825 78.695 -15.1525 80.015 -14.8125 81.375 C-16.1325 81.045 -17.4525 80.715 -18.8125 80.375 C-15.3475 84.83 -15.3475 84.83 -11.8125 89.375 C-12.1425 90.035 -12.4725 90.695 -12.8125 91.375 C-14.4625 90.055 -16.1125 88.735 -17.8125 87.375 C-17.25820312 87.98988281 -16.70390625 88.60476562 -16.1328125 89.23828125 C-15.40835938 90.04652344 -14.68390625 90.85476562 -13.9375 91.6875 C-13.21820313 92.48800781 -12.49890625 93.28851563 -11.7578125 94.11328125 C-9.8125 96.375 -9.8125 96.375 -7.8125 99.375 C-3.34878239 98.79364756 0.32477814 97.62602434 4.4375 95.8125 C9.98919972 93.375 9.98919972 93.375 12.1875 93.375 C12.1875 94.035 12.1875 94.695 12.1875 95.375 C11.30707031 95.70113281 10.42664063 96.02726562 9.51953125 96.36328125 C8.35808594 96.80027344 7.19664062 97.23726563 6 97.6875 C4.85144531 98.11675781 3.70289063 98.54601562 2.51953125 98.98828125 C-0.7921491 100.26740884 -0.7921491 100.26740884 -3.55078125 102.04296875 C-5.8125 103.375 -5.8125 103.375 -8.8125 103.375 C-10.49609375 101.07421875 -10.49609375 101.07421875 -12.25 98.0625 C-15.19261408 92.88903546 -15.19261408 92.88903546 -19.8125 89.375 C-22.43831229 89.03090859 -24.87040533 88.8200558 -27.5 88.75 C-34.7071793 88.4803207 -34.7071793 88.4803207 -35.8125 87.375 C-36.125 85.0625 -36.125 85.0625 -35.8125 82.375 C-35.1525 81.7975 -34.4925 81.22 -33.8125 80.625 C-31.46564914 77.98479278 -31.58542488 77.39116225 -31.6875 74 C-31.74679688 73.27039063 -31.80609375 72.54078125 -31.8671875 71.7890625 C-31.8125 69.375 -31.8125 69.375 -30.84765625 66.66796875 C-29.2890218 61.70974669 -29.42098249 56.79298384 -29.33398438 51.62695312 C-29.10731974 44.75514477 -28.10792465 38.21052457 -23.6875 32.75 C-20.44408991 30.07066123 -17.15346232 27.46705715 -13.80078125 24.92578125 C-11.73795619 23.38224714 -11.73795619 23.38224714 -9.8125 21.375 C-9.6634288 19.3004644 -9.6634288 19.3004644 -10.8125 17.375 C-13.80865946 16.0704344 -13.80865946 16.0704344 -16.8125 15.375 C-17.8125 12.3125 -17.8125 12.3125 -17.8125 8.375 C-12.63247735 2.11221727 -7.91972339 0.15515041 0 0 Z M-2.8125 19.375 C-3.65069158 20.99749941 -4.4829116 22.62308497 -5.3125 24.25 C-6.00859375 25.60738281 -6.00859375 25.60738281 -6.71875 26.9921875 C-7.95155589 29.24096859 -7.95155589 29.24096859 -7.8125 31.375 C-8.4725 31.375 -9.1325 31.375 -9.8125 31.375 C-8.8225 28.405 -7.8325 25.435 -6.8125 22.375 C-8.71395971 23.80109479 -10.61471596 25.22813816 -12.51171875 26.66015625 C-14.00064233 27.76989725 -15.50265188 28.86238159 -17.01953125 29.93359375 C-21.73380354 33.3009311 -25.08782096 35.98266189 -26.3515625 41.8984375 C-27.06959917 47.31413777 -27.1686492 52.74994601 -27.33007812 58.20703125 C-27.36423828 59.06941406 -27.39839844 59.93179688 -27.43359375 60.8203125 C-27.4586499 61.59906738 -27.48370605 62.37782227 -27.50952148 63.18017578 C-27.84364875 65.60064647 -28.68526037 67.226138 -29.8125 69.375 C-29.90521502 71.83516747 -29.90521502 71.83516747 -29.6875 74.375 C-29.5633669 79.07136903 -29.5633669 79.07136903 -31.8125 81.8125 C-32.8025 82.5859375 -32.8025 82.5859375 -33.8125 83.375 C-33.8125 84.365 -33.8125 85.355 -33.8125 86.375 C-29.5225 86.375 -25.2325 86.375 -20.8125 86.375 C-20.8125 84.065 -20.8125 81.755 -20.8125 79.375 C-19.3275 78.88 -19.3275 78.88 -17.8125 78.375 C-17.8125 77.385 -17.8125 76.395 -17.8125 75.375 C-16.93464844 75.42720703 -16.93464844 75.42720703 -16.0390625 75.48046875 C-1.09481201 75.95168386 13.17296755 72.20562222 27.1875 67.375 C26.6985039 64.23581969 26.17557179 61.33846987 25.1875 58.3125 C24.10646412 54.85471856 24.08826265 51.6103628 24 48 C23.61757718 41.92990692 22.04571694 38.89828415 18.01953125 34.4375 C16.21602896 32.40711789 14.95587923 30.42080066 13.625 28.0625 C11.34443304 24.27917533 9.0781731 22.45002565 5.1875 20.375 C4.5275 20.375 3.8675 20.375 3.1875 20.375 C3.66609241 21.97933809 4.14539558 23.58346416 4.625 25.1875 C4.89183594 26.08082031 5.15867188 26.97414062 5.43359375 27.89453125 C5.99137873 29.72973055 6.58094575 31.55533726 7.1875 33.375 C6.5275 33.375 5.8675 33.375 5.1875 33.375 C5.105 32.55 5.0225 31.725 4.9375 30.875 C4.02302731 26.60746079 2.26526822 23.18263106 0.1875 19.375 C-0.8025 19.375 -1.7925 19.375 -2.8125 19.375 Z " fill="#687683" transform="translate(121.8125,163.625)"/>
<path d="M0 0 C2.5804764 1.47601214 4.68079654 3.10677268 7 5 C6.67 5.66 6.34 6.32 6 7 C6.99 7.99 6.99 7.99 8 9 C5.03 10.32 2.06 11.64 -1 13 C1.97 12.34 4.94 11.68 8 11 C8 11.66 8 12.32 8 13 C7.34 13.33 6.68 13.66 6 14 C6.99 14.66 7.98 15.32 9 16 C8.0925 16.28875 7.185 16.5775 6.25 16.875 C3.16051076 17.86556377 3.16051076 17.86556377 1 19 C-1.58971668 20.29485834 -4.24668165 21.09475654 -7 22 C-8.42629466 22.48939166 -9.85204145 22.98038191 -11.27734375 23.47265625 C-12.83069143 24.00271477 -14.3840776 24.53266049 -15.9375 25.0625 C-16.71029297 25.33126953 -17.48308594 25.60003906 -18.27929688 25.87695312 C-21.79236328 27.06777276 -24.99067446 27.99868334 -28.6796875 28.51953125 C-33.28797427 29.18637745 -37.03718894 31.09045237 -41.23046875 33.0390625 C-44 34 -44 34 -46.140625 33.921875 C-48.72040318 32.64282531 -49.88257036 30.94758729 -51.5625 28.625 C-53.57168693 25.87747043 -55.51959419 23.33716049 -58 21 C-57.67 20.34 -57.34 19.68 -57 19 C-54.525 20.98 -54.525 20.98 -52 23 C-52.433125 22.51789063 -52.86625 22.03578125 -53.3125 21.5390625 C-53.869375 20.90742188 -54.42625 20.27578125 -55 19.625 C-55.8353125 18.68527344 -55.8353125 18.68527344 -56.6875 17.7265625 C-58 16 -58 16 -58 14 C-57.01 13.67 -56.02 13.34 -55 13 C-55 12.34 -55 11.68 -55 11 C-51.5852832 10.60558143 -48.16820111 10.23787587 -44.75 9.875 C-43.78191406 9.76285156 -42.81382813 9.65070313 -41.81640625 9.53515625 C-40.88183594 9.43847656 -39.94726562 9.34179688 -38.984375 9.2421875 C-38.12553711 9.1479248 -37.26669922 9.05366211 -36.38183594 8.95654297 C-33.72323505 9.00504963 -32.25728301 9.64288855 -30 11 C-30.33 10.01 -30.66 9.02 -31 8 C-26.65002424 5.75910339 -23.72470009 5.83954735 -19 7 C-16.81881123 8.18147725 -14.98900202 9.49612043 -13 11 C-15.475 8.03 -15.475 8.03 -18 5 C-5.88850174 -1.13240418 -5.88850174 -1.13240418 0 0 Z " fill="#657481" transform="translate(161,230)"/>
<path d="M0 0 C4.021875 -0.0928125 4.021875 -0.0928125 8.125 -0.1875 C8.95789551 -0.21481201 9.79079102 -0.24212402 10.64892578 -0.27026367 C15.52007788 -0.3243101 18.77291036 0.32623848 23 3 C26.68724327 6.78427598 27.29171853 9.8849719 27.4375 15 C27.24558464 19.69901848 27.02229162 23.22213547 24 27 C16.60589101 32.50933611 8.86993763 31.29566459 0 31 C0 20.77 0 10.54 0 0 Z " fill="#585858" transform="translate(195,226)"/>
<path d="M0 0 C0.71220703 -0.03738281 1.42441406 -0.07476562 2.15820312 -0.11328125 C6.18880051 -0.18039573 7.95535745 0.19093975 11.1484375 2.72265625 C13.22330624 5.42157555 13.90008178 7.02178742 14.1875 10.375 C13.465625 10.7875 12.74375 11.2 12 11.625 C9.12808666 13.3224314 9.12808666 13.3224314 6.5625 15.5625 C4.1875 17.375 4.1875 17.375 1.1875 17.375 C1.5175 16.055 1.8475 14.735 2.1875 13.375 C1.1975 14.365 0.2075 15.355 -0.8125 16.375 C-3.97365776 15.00516497 -4.8052092 14.3859362 -6.8125 11.375 C-6.65910156 11.931875 -6.50570312 12.48875 -6.34765625 13.0625 C-5.61377442 16.65306236 -5.19731959 19.24069725 -6.98828125 22.54296875 C-10.71151847 26.96805759 -15.00213835 29.94703372 -19.859375 33.01171875 C-23.27642239 35.39681783 -24.50067776 37.90465569 -25.34765625 41.8984375 C-26.07172311 47.31372747 -26.16864004 52.74963635 -26.33007812 58.20703125 C-26.36423828 59.06941406 -26.39839844 59.93179688 -26.43359375 60.8203125 C-26.4586499 61.59906738 -26.48370605 62.37782227 -26.50952148 63.18017578 C-26.84364875 65.60064647 -27.68526037 67.226138 -28.8125 69.375 C-28.90521502 71.83516747 -28.90521502 71.83516747 -28.6875 74.375 C-28.57721217 79.06912582 -28.57721217 79.06912582 -30.6875 81.8125 C-31.38875 82.328125 -32.09 82.84375 -32.8125 83.375 C-33.4725 84.365 -34.1325 85.355 -34.8125 86.375 C-35.5625 84.625 -35.5625 84.625 -35.8125 82.375 C-35.173125 81.818125 -34.53375 81.26125 -33.875 80.6875 C-31.47533895 77.99697094 -31.57776871 77.44787265 -31.6875 74 C-31.74679688 73.27039063 -31.80609375 72.54078125 -31.8671875 71.7890625 C-31.8125 69.375 -31.8125 69.375 -30.84765625 66.66796875 C-29.2890218 61.70974669 -29.42098249 56.79298384 -29.33398438 51.62695312 C-29.10731974 44.75514477 -28.10792465 38.21052457 -23.6875 32.75 C-20.44408991 30.07066123 -17.15346232 27.46705715 -13.80078125 24.92578125 C-11.73795619 23.38224714 -11.73795619 23.38224714 -9.8125 21.375 C-9.6634288 19.3004644 -9.6634288 19.3004644 -10.8125 17.375 C-13.80865946 16.0704344 -13.80865946 16.0704344 -16.8125 15.375 C-17.8125 12.3125 -17.8125 12.3125 -17.8125 8.375 C-12.63247735 2.11221727 -7.91972339 0.15515041 0 0 Z " fill="#647380" transform="translate(121.8125,163.625)"/>
<path d="M0 0 C1.65 0 3.3 0 5 0 C5 0.99 5 1.98 5 3 C5.515625 2.505 6.03125 2.01 6.5625 1.5 C9.90028661 -0.55402253 12.14399755 -0.41314312 16 0 C18.4375 1.5 18.4375 1.5 20 3 C20.5259375 2.2575 20.5259375 2.2575 21.0625 1.5 C24.06034694 -0.82091376 26.32644233 -0.45113866 30 0 C32.20703125 1.38671875 32.20703125 1.38671875 34 4 C34.49205767 7.42920498 34.37581693 10.79487358 34.25 14.25 C34.23195313 15.18585938 34.21390625 16.12171875 34.1953125 17.0859375 C34.14825673 19.39167015 34.08253713 21.69530945 34 24 C32.02 24 30.04 24 28 24 C27.67 18.06 27.34 12.12 27 6 C25.35 6 23.7 6 22 6 C19.88074396 8.11925604 20.58168983 12.6196093 20.4375 15.5625 C20.39431641 16.36880859 20.35113281 17.17511719 20.30664062 18.00585938 C20.20024738 20.00368805 20.09959112 22.0018207 20 24 C18.02 24 16.04 24 14 24 C13.67 18.06 13.34 12.12 13 6 C11.35 6 9.7 6 8 6 C5.88074396 8.11925604 6.58168983 12.6196093 6.4375 15.5625 C6.39431641 16.36880859 6.35113281 17.17511719 6.30664062 18.00585938 C6.20024738 20.00368805 6.09959112 22.0018207 6 24 C4.02 24 2.04 24 0 24 C0 16.08 0 8.16 0 0 Z " fill="#595959" transform="translate(309,233)"/>
<path d="M0 0 C2.76171875 1.54296875 2.76171875 1.54296875 5 4 C5.37398847 6.81239326 5.48293015 8.97592155 5.3125 11.75 C5.28994141 12.44738281 5.26738281 13.14476562 5.24414062 13.86328125 C5.18547048 15.57644935 5.09579256 17.28850623 5 19 C5.99 19 6.98 19 8 19 C8 20.65 8 22.3 8 24 C2.375 24.25 2.375 24.25 -1 22 C-1.66 22.66 -2.32 23.32 -3 24 C-9.90423163 24.66815145 -9.90423163 24.66815145 -13.5625 22.4375 C-15 20 -15 20 -15.0625 16.4375 C-14 13 -14 13 -11.875 11.1875 C-8.63352179 9.84862856 -5.39696789 8.86589378 -2 8 C-2 7.34 -2 6.68 -2 6 C-5.94727588 5.82057837 -8.5980513 5.90649311 -12 8 C-12.66 6.35 -13.32 4.7 -14 3 C-9.72315661 -0.31110456 -5.24869194 -1.14141075 0 0 Z " fill="#5D5D5D" transform="translate(269,233)"/>
<path d="M0 0 C1.98 0 3.96 0 6 0 C6.33 3.63 6.66 7.26 7 11 C7.99 10.34 8.98 9.68 10 9 C13.67400407 8.59919956 16.02624073 8.38989242 19.20703125 10.3828125 C22.00087406 14.46097085 21.4253427 18.4348196 21.25 23.25 C21.23195312 24.18585938 21.21390625 25.12171875 21.1953125 26.0859375 C21.14825673 28.39167015 21.08253713 30.69530945 21 33 C19.02 33 17.04 33 15 33 C14.67 27.06 14.34 21.12 14 15 C12.35 15 10.7 15 9 15 C6.06552643 17.93447357 6.53841577 21.18259456 6.375 25.125 C6.33632812 25.87910156 6.29765625 26.63320312 6.2578125 27.41015625 C6.16348969 29.27303184 6.08065338 31.13648255 6 33 C4.02 33 2.04 33 0 33 C0 22.11 0 11.22 0 0 Z " fill="#5B5B5B" transform="translate(228,224)"/>
<path d="M0 0 C2.2265625 1.54296875 2.2265625 1.54296875 4 4 C4.2911521 6.73682971 4.38322418 9.03940039 4.25 11.75 C4.23195313 12.44738281 4.21390625 13.14476562 4.1953125 13.86328125 C4.14838554 15.57611539 4.07664605 17.28823824 4 19 C4.99 19 5.98 19 7 19 C7 20.65 7 22.3 7 24 C5.02 24 3.04 24 1 24 C0.67 23.01 0.34 22.02 0 21 C-0.495 21.495 -0.99 21.99 -1.5 22.5 C-5.22645843 24.73587506 -7.67911757 24.41151261 -12 24 C-14 22.9375 -14 22.9375 -15 21 C-15.5 17.5625 -15.5 17.5625 -15 14 C-12.23569209 10.71738436 -9.81606031 9.79265269 -5.6875 9.25 C-3.8621875 9.12625 -3.8621875 9.12625 -2 9 C-2 7.68 -2 6.36 -2 5 C-6.05606165 5.46800711 -9.46588679 5.87953208 -13 8 C-13.33 6.35 -13.66 4.7 -14 3 C-8.99101557 -0.00539066 -5.70101153 -0.64366259 0 0 Z " fill="#5A5A5A" transform="translate(413,233)"/>
<path d="M0 0 C1.98 0 3.96 0 6 0 C6.33 0.66 6.66 1.32 7 2 C7.99 1.34 8.98 0.68 10 0 C13.67400407 -0.40080044 16.02624073 -0.61010758 19.20703125 1.3828125 C22.00087406 5.46097085 21.4253427 9.4348196 21.25 14.25 C21.23195313 15.18585938 21.21390625 16.12171875 21.1953125 17.0859375 C21.14825673 19.39167015 21.08253713 21.69530945 21 24 C19.02 24 17.04 24 15 24 C14.67 18.06 14.34 12.12 14 6 C11.69 6 9.38 6 7 6 C6.67 11.94 6.34 17.88 6 24 C4.02 24 2.04 24 0 24 C0 16.08 0 8.16 0 0 Z " fill="#5A5A5A" transform="translate(281,233)"/>
<path d="M0 0 C9 0 9 0 12 1.875 C14.56947704 4.60506935 14.95902295 5.4672983 15.25 9.25 C14.97782201 13.33266988 14.22241848 15.58700019 12 19 C8.21712372 22.08234364 5.31354135 21 0 21 C0 14.07 0 7.14 0 0 Z " fill="#F6F6F6" transform="translate(201,231)"/>
<path d="M0 0 C1.98 0 3.96 0 6 0 C6 1.65 6 3.3 6 5 C8.31 5 10.62 5 13 5 C13 6.65 13 8.3 13 10 C10.69 10 8.38 10 6 10 C6.33 14.29 6.66 18.58 7 23 C8.98 23.33 10.96 23.66 13 24 C13.5625 25.9375 13.5625 25.9375 14 28 C12.42077594 29.57922406 10.80556126 29.207659 8.625 29.25 C7.83351563 29.27578125 7.04203125 29.3015625 6.2265625 29.328125 C3.49169567 28.92509199 2.69051008 28.13647286 1 26 C-0.50156874 22.99686252 -0.09281204 20.20932478 -0.0625 16.875 C-0.05347656 15.59367188 -0.04445313 14.31234375 -0.03515625 12.9921875 C-0.02355469 12.00476563 -0.01195312 11.01734375 0 10 C-0.99 10 -1.98 10 -3 10 C-3 8.35 -3 6.7 -3 5 C-2.01 5 -1.02 5 0 5 C0 3.35 0 1.7 0 0 Z " fill="#5C5C5C" transform="translate(363,228)"/>
<path d="M0 0 C0.66 0 1.32 0 2 0 C2 0.99 2 1.98 2 3 C4.97 3.495 4.97 3.495 8 4 C8.33 4.99 8.66 5.98 9 7 C6.69 6.34 4.38 5.68 2 5 C2 7.31 2 9.62 2 12 C2.763125 12.12375 3.52625 12.2475 4.3125 12.375 C7 13 7 13 10 15 C10.4375 17.9375 10.4375 17.9375 10 21 C7.7793949 23.467339 6.56430797 23.96152446 3.25 24.1875 C2.13625 24.0946875 2.13625 24.0946875 1 24 C0.67 24.99 0.34 25.98 0 27 C0 26.01 0 25.02 0 24 C-0.94875 23.9175 -1.8975 23.835 -2.875 23.75 C-6 23 -6 23 -7.375 20.9375 C-7.58125 20.298125 -7.7875 19.65875 -8 19 C-5.61435923 19.57584432 -3.33317216 20.22227595 -1 21 C-1 18.36 -1 15.72 -1 13 C-1.61875 12.87625 -2.2375 12.7525 -2.875 12.625 C-5 12 -5 12 -7 10 C-7.25 7.5 -7.25 7.5 -7 5 C-5 3 -5 3 -2.9375 2.5 C-2.298125 2.335 -1.65875 2.17 -1 2 C-0.67 1.34 -0.34 0.68 0 0 Z " fill="#61717E" transform="translate(120,202)"/>
<path d="M0 0 C0.886875 0.845625 1.77375 1.69125 2.6875 2.5625 C2.6875 3.2225 2.6875 3.8825 2.6875 4.5625 C-0.03931111 5.40429395 -2.76851443 6.23613069 -5.5 7.0625 C-6.26892578 7.30097656 -7.03785156 7.53945312 -7.83007812 7.78515625 C-15.94672605 10.22363417 -15.94672605 10.22363417 -19.3125 9.5625 C-21.33203125 7.6640625 -21.33203125 7.6640625 -23.125 5.1875 C-23.72957031 4.37539062 -24.33414063 3.56328125 -24.95703125 2.7265625 C-26.3125 0.5625 -26.3125 0.5625 -26.3125 -1.4375 C-23.41758022 -1.80124381 -20.52202377 -2.15378667 -17.625 -2.5 C-16.40006836 -2.6556543 -16.40006836 -2.6556543 -15.15039062 -2.81445312 C-9.38295468 -3.49160147 -4.63762304 -4.03844694 0 0 Z " fill="#F5F6F7" transform="translate(132.3125,242.4375)"/>
<path d="M0 0 C2.65204896 0.36834013 3.73840056 0.6867691 5.484375 2.77734375 C5.90203125 3.49019531 6.3196875 4.20304688 6.75 4.9375 C7.17796875 5.64777344 7.6059375 6.35804688 8.046875 7.08984375 C9 9 9 9 9 11 C9.66 11 10.32 11 11 11 C11 11.66 11 12.32 11 13 C17.01077136 11.36959185 23.01663928 9.72852643 29 8 C29 7.01 29 6.02 29 5 C30.65 4.67 32.3 4.34 34 4 C34 6.64 34 9.28 34 12 C30.75744348 13.37250361 27.50496348 14.71971548 24.25 16.0625 C22.86941406 16.64741211 22.86941406 16.64741211 21.4609375 17.24414062 C20.57148437 17.60830078 19.68203125 17.97246094 18.765625 18.34765625 C17.94868164 18.68804932 17.13173828 19.02844238 16.29003906 19.37915039 C13.71151213 20.07821158 12.46250653 19.9844066 10 19 C8.18359375 17.0390625 8.18359375 17.0390625 6.4375 14.625 C4.42831307 11.87747043 2.48040581 9.33716049 0 7 C0.33 6.34 0.66 5.68 1 5 C3.475 6.98 3.475 6.98 6 9 C5.566875 8.51789063 5.13375 8.03578125 4.6875 7.5390625 C4.130625 6.90742188 3.57375 6.27578125 3 5.625 C2.443125 4.99851563 1.88625 4.37203125 1.3125 3.7265625 C0 2 0 2 0 0 Z " fill="#E4E6E8" transform="translate(103,244)"/>
<path d="M0 0 C1.65 0 3.3 0 5 0 C5.33 0.99 5.66 1.98 6 3 C6.391875 2.505 6.78375 2.01 7.1875 1.5 C9.55091715 -0.45593143 11.01435003 -0.24207973 14 0 C14 1.98 14 3.96 14 6 C11.69 6.66 9.38 7.32 7 8 C6.67 13.28 6.34 18.56 6 24 C4.02 24 2.04 24 0 24 C0 16.08 0 8.16 0 0 Z " fill="#5D5D5D" transform="translate(381,233)"/>
<path d="M0 0 C1.41716699 0.01454183 2.83426821 0.0556931 4.25 0.12109375 C5.31734375 0.12979492 5.31734375 0.12979492 6.40625 0.13867188 C10.14372321 0.2258331 13.077442 0.50138817 16.25 2.55859375 C15.17550335 5.78208371 14.38675431 6.59997456 11.875 8.74609375 C11.26914063 9.27589844 10.66328125 9.80570313 10.0390625 10.3515625 C8.25 11.55859375 8.25 11.55859375 5.25 11.55859375 C5.58 10.23859375 5.91 8.91859375 6.25 7.55859375 C5.26 8.54859375 4.27 9.53859375 3.25 10.55859375 C0.08884224 9.18875872 -0.7427092 8.56952995 -2.75 5.55859375 C-2.42 7.53859375 -2.09 9.51859375 -1.75 11.55859375 C-4.37187494 10.50984377 -5.54371361 9.90928062 -7 7.43359375 C-7.2475 6.81484375 -7.495 6.19609375 -7.75 5.55859375 C-5.44815453 1.76414536 -4.486596 0.66831586 0 0 Z " fill="#F2F2F4" transform="translate(117.75,169.44140625)"/>
<path d="M0 0 C2.5848679 1.47052524 4.67998004 3.10610615 7 5 C6 7 6 7 3.48828125 8.0703125 C1.91626953 8.59238281 1.91626953 8.59238281 0.3125 9.125 C-0.72261719 9.47820312 -1.75773437 9.83140625 -2.82421875 10.1953125 C-6.74981796 11.18999078 -10.25416489 12.00583093 -13.8984375 9.90625 C-15.265625 8.60416667 -16.6328125 7.30208333 -18 6 C-16.33609628 2.67219256 -12.98586401 2.1052688 -9.62890625 0.83984375 C-6.13054362 -0.27776095 -3.63808981 -0.61778884 0 0 Z " fill="#F5F5F6" transform="translate(161,230)"/>
<path d="M0 0 C2.31 0 4.62 0 7 0 C7 7.92 7 15.84 7 24 C4.69 24 2.38 24 0 24 C0 16.08 0 8.16 0 0 Z " fill="#6E6E6E" transform="translate(349,233)"/>
<path d="M0 0 C0.763125 0.20625 1.52625 0.4125 2.3125 0.625 C0.92054085 3.4089183 -0.84325779 3.60398997 -3.6875 4.625 C-1.7075 4.295 0.2725 3.965 2.3125 3.625 C2.3125 4.285 2.3125 4.945 2.3125 5.625 C1.3225 6.12 1.3225 6.12 0.3125 6.625 C1.3025 7.285 2.2925 7.945 3.3125 8.625 C-0.969016 10.17363345 -5.05816549 11.10652364 -9.5625 11.75 C-10.71492187 11.91757813 -11.86734375 12.08515625 -13.0546875 12.2578125 C-13.92351562 12.37898437 -14.79234375 12.50015625 -15.6875 12.625 C-15.6875 10.315 -15.6875 8.005 -15.6875 5.625 C-14.65689453 5.22667969 -14.65689453 5.22667969 -13.60546875 4.8203125 C-12.70441406 4.46710938 -11.80335938 4.11390625 -10.875 3.75 C-9.98167969 3.40195313 -9.08835938 3.05390625 -8.16796875 2.6953125 C-1.45199461 -0.2026039 -1.45199461 -0.2026039 0 0 Z " fill="#DCDFE3" transform="translate(166.6875,237.375)"/>
<path d="M0 0 C0.33 0.66 0.66 1.32 1 2 C2.05058594 1.80019531 3.10117188 1.60039062 4.18359375 1.39453125 C8.47524845 0.74654147 12.70640599 0.11512519 17 1 C21.03536895 4.0673013 23.45645341 7.65735947 26 12 C26.99 13.485 26.99 13.485 28 15 C32.46371761 14.41864756 36.13727814 13.25102434 40.25 11.4375 C45.80169972 9 45.80169972 9 48 9 C48 9.66 48 10.32 48 11 C47.11957031 11.32613281 46.23914063 11.65226562 45.33203125 11.98828125 C43.58986328 12.64376953 43.58986328 12.64376953 41.8125 13.3125 C40.66394531 13.74175781 39.51539063 14.17101562 38.33203125 14.61328125 C35.0203509 15.89240884 35.0203509 15.89240884 32.26171875 17.66796875 C30 19 30 19 27 19 C25.31640625 16.69921875 25.31640625 16.69921875 23.5625 13.6875 C20.61925977 8.5147165 20.61925977 8.5147165 16 5 C13.35097425 4.63082726 10.90440473 4.40031112 8.25 4.3125 C7.55261719 4.27833984 6.85523437 4.24417969 6.13671875 4.20898438 C4.42502892 4.12691705 2.7125424 4.06177081 1 4 C0.67 2.68 0.34 1.36 0 0 Z " fill="#5E6D7B" transform="translate(86,248)"/>
<path d="M0 0 C2.26116373 1.49266364 4.02328303 3.11970825 6 5 C3.28762108 7.71237892 1.13442691 7.86524046 -2.6015625 8.24609375 C-6.82441445 7.81280438 -9.25806196 5.04169976 -12 2 C-7.34079549 -1.10613634 -5.5565997 -1.29653993 0 0 Z " fill="#F1F2F4" transform="translate(142,237)"/>
<path d="M0 0 C0.66 0.33 1.32 0.66 2 1 C5.63469004 1.27755815 9.26911868 1.44735896 12.91015625 1.62109375 C13.92980469 1.74613281 14.94945312 1.87117187 16 2 C16.33 2.66 16.66 3.32 17 4 C15.84242188 3.9071875 14.68484375 3.814375 13.4921875 3.71875 C5.13475512 2.88593546 5.13475512 2.88593546 -2.32421875 5.74609375 C-3.8495198 7.88067385 -3.8495198 7.88067385 -4.89453125 10.15234375 C-6 12 -6 12 -8.13671875 12.75390625 C-9.05904297 12.87572266 -9.05904297 12.87572266 -10 13 C-10.2421875 10.734375 -10.2421875 10.734375 -10 8 C-8.3203125 6.015625 -8.3203125 6.015625 -6.125 4.25 C-5.04605469 3.36054688 -5.04605469 3.36054688 -3.9453125 2.453125 C-2 1 -2 1 0 0 Z " fill="#939DA7" transform="translate(114,164)"/>
<path d="M0 0 C0.33 0 0.66 0 1 0 C1.22634311 3.4157233 1.42792113 6.83247322 1.625 10.25 C1.68945312 11.21808594 1.75390625 12.18617188 1.8203125 13.18359375 C1.871875 14.11816406 1.9234375 15.05273438 1.9765625 16.015625 C2.02893066 16.87446289 2.08129883 17.73330078 2.13525391 18.61816406 C1.98587728 21.24870264 1.24835431 22.71317019 0 25 C-0.09271502 27.46016747 -0.09271502 27.46016747 0.125 30 C0.23528783 34.69412582 0.23528783 34.69412582 -1.875 37.4375 C-2.57625 37.953125 -3.2775 38.46875 -4 39 C-4.66 39.99 -5.32 40.98 -6 42 C-6.75 40.25 -6.75 40.25 -7 38 C-6.360625 37.443125 -5.72125 36.88625 -5.0625 36.3125 C-2.66283895 33.62197094 -2.76526871 33.07287265 -2.875 29.625 C-2.93429688 28.89539063 -2.99359375 28.16578125 -3.0546875 27.4140625 C-3 25 -3 25 -2.046875 22.328125 C-0.65984415 17.91860902 -0.54113831 13.72149333 -0.375 9.125 C-0.31699219 7.80628906 -0.31699219 7.80628906 -0.2578125 6.4609375 C-0.16418966 4.30761207 -0.08103541 2.15383586 0 0 Z " fill="#6C7A87" transform="translate(93,208)"/>
<path d="M0 0 C0.66 0 1.32 0 2 0 C2 0.99 2 1.98 2 3 C4.97 3.495 4.97 3.495 8 4 C8.33 4.99 8.66 5.98 9 7 C6.69 6.34 4.38 5.68 2 5 C1.855625 5.61875 1.71125 6.2375 1.5625 6.875 C1 9 1 9 0 11 C-1.32 10.67 -2.64 10.34 -4 10 C-4.12375 9.360625 -4.2475 8.72125 -4.375 8.0625 C-4.684375 7.0415625 -4.684375 7.0415625 -5 6 C-5.66 5.67 -6.32 5.34 -7 5 C-5 3 -5 3 -2.9375 2.5 C-2.298125 2.335 -1.65875 2.17 -1 2 C-0.67 1.34 -0.34 0.68 0 0 Z " fill="#647481" transform="translate(120,202)"/>
<path d="M0 0 C-0.33 0.99 -0.66 1.98 -1 3 C-3.765625 4.16796875 -3.765625 4.16796875 -7.25 5.1875 C-8.38953125 5.53167969 -9.5290625 5.87585938 -10.703125 6.23046875 C-13.62909513 6.91342623 -16.0176081 7.16257399 -19 7 C-19 6.34 -19 5.68 -19 5 C-19.66 4.67 -20.32 4.34 -21 4 C-18.06520402 3.13541688 -15.12778481 2.28302813 -12.1875 1.4375 C-11.35412109 1.19064453 -10.52074219 0.94378906 -9.66210938 0.68945312 C-8.85966797 0.46064453 -8.05722656 0.23183594 -7.23046875 -0.00390625 C-6.49207764 -0.21861572 -5.75368652 -0.4333252 -4.99291992 -0.65454102 C-3 -1 -3 -1 0 0 Z " fill="#C5CACF" transform="translate(133,250)"/>
<path d="M0 0 C0 1.98 0 3.96 0 6 C-4.95 7.485 -4.95 7.485 -10 9 C-10 6.69 -10 4.38 -10 2 C-3.375 0 -3.375 0 0 0 Z " fill="#F3F4F5" transform="translate(149,245)"/>
<path d="M0 0 C2 2 4 4 6 6 C11.37130481 5.53293002 16.30598921 4.10932723 21.44921875 2.5234375 C24.07675577 1.9842492 25.49972676 2.12168387 28 3 C25.0063071 4.01959106 22.00421537 5.01188787 19 6 C18.12601563 6.29777344 17.25203125 6.59554687 16.3515625 6.90234375 C15.06378906 7.32193359 15.06378906 7.32193359 13.75 7.75 C12.96109375 8.01296875 12.1721875 8.2759375 11.359375 8.546875 C8.54257217 9.08785038 6.72363161 8.88370743 4 8 C0 2.91891892 0 2.91891892 0 0 Z " fill="#6E7B88" transform="translate(107,245)"/>
<path d="M0 0 C0 2.64 0 5.28 0 8 C-4.625 10.125 -4.625 10.125 -8 9 C-7.34 9 -6.68 9 -6 9 C-5.87625 7.700625 -5.7525 6.40125 -5.625 5.0625 C-5.4140625 2.84765625 -5.4140625 2.84765625 -5 1 C-3 0 -3 0 0 0 Z " fill="#EBECEE" transform="translate(137,248)"/>
<path d="M0 0 C0.22732116 2.80362763 0.34081872 4.46186517 -1.1875 6.875 C-3 8 -3 8 -5.6875 7.6875 C-6.450625 7.460625 -7.21375 7.23375 -8 7 C-7.8125 4.625 -7.8125 4.625 -7 2 C-4.54236535 0.67665827 -2.79402354 0 0 0 Z " fill="#EEEEEE" transform="translate(412,245)"/>
<path d="M0 0 C0.125 2.375 0.125 2.375 0 5 C-0.66 5.66 -1.32 6.32 -2 7 C-5.125 6.625 -5.125 6.625 -8 6 C-7.67 4.35 -7.34 2.7 -7 1 C-4.50935112 0.31292445 -2.62113708 0 0 0 Z " fill="#F0F0F0" transform="translate(268,246)"/>
<path d="M0 0 C0.66 0 1.32 0 2 0 C-0 4 -0 4 -1.03076172 5.82910156 C-2.13152916 8.29459882 -2.40351109 10.29827277 -2.6328125 12.984375 C-2.71660156 13.91894531 -2.80039063 14.85351562 -2.88671875 15.81640625 C-2.96535156 16.78449219 -3.04398437 17.75257813 -3.125 18.75 C-3.21136719 19.73355469 -3.29773438 20.71710938 -3.38671875 21.73046875 C-3.59840638 24.15311603 -3.80256279 26.57615667 -4 29 C-4.33 29 -4.66 29 -5 29 C-5.14685185 25.66714074 -5.23457648 22.33512655 -5.3125 19 C-5.35439453 18.06542969 -5.39628906 17.13085938 -5.43945312 16.16796875 C-5.55268174 9.69129208 -4.55055042 4.85392045 0 0 Z " fill="#6A7885" transform="translate(99,195)"/>
<path d="M0 0 C-0.66 0.66 -1.32 1.32 -2 2 C-2 2.99 -2 3.98 -2 5 C-2.495 4.67 -2.99 4.34 -3.5 4 C-6.17022073 2.75240622 -6.17022073 2.75240622 -10 3 C-13.76687864 3 -14.91190305 2.76462683 -18 1 C-16.12739946 0.63335815 -14.25175307 0.28225634 -12.375 -0.0625 C-11.33085938 -0.25972656 -10.28671875 -0.45695313 -9.2109375 -0.66015625 C-5.89522371 -1.01108946 -3.24598855 -0.6969615 0 0 Z " fill="#778490" transform="translate(133,237)"/>
<path d="M0 0 C1.2065625 0.0309375 1.2065625 0.0309375 2.4375 0.0625 C2.81968767 1.71864657 3.15145102 3.38707024 3.4375 5.0625 C2.4375 6.0625 2.4375 6.0625 -0.125 6.125 C-1.3315625 6.0940625 -1.3315625 6.0940625 -2.5625 6.0625 C-2.94468767 4.40635343 -3.27645102 2.73792976 -3.5625 1.0625 C-2.5625 0.0625 -2.5625 0.0625 0 0 Z " fill="#5A5A5A" transform="translate(352.5625,223.9375)"/>
<path d="M0 0 C0 0.66 0 1.32 0 2 C-2.10171867 2.8394882 -4.20646625 3.67139656 -6.3125 4.5 C-7.48425781 4.9640625 -8.65601562 5.428125 -9.86328125 5.90625 C-13 7 -13 7 -16 7 C-15.67 6.01 -15.34 5.02 -15 4 C-12.3828125 2.83203125 -12.3828125 2.83203125 -9.125 1.8125 C-8.05507812 1.46832031 -6.98515625 1.12414062 -5.8828125 0.76953125 C-3 0 -3 0 0 0 Z " fill="#61707E" transform="translate(131,255)"/>
<path d="M0 0 C3.89835017 1.29945006 6.60392154 2.59019603 9 6 C8.75 9.75 8.75 9.75 8 13 C7.34 13 6.68 13 6 13 C6 11.02 6 9.04 6 7 C5.34 7 4.68 7 4 7 C2.50475822 4.7272325 1.21600285 2.4320057 0 0 Z " fill="#5A6978" transform="translate(131,241)"/>
<path d="M0 0 C4.55446296 3.60774875 7.92679142 6.99180824 11 12 C11.66 12.66 12.32 13.32 13 14 C12.34 14 11.68 14 11 14 C10.67 14.66 10.34 15.32 10 16 C9.54109375 15.25234375 9.0821875 14.5046875 8.609375 13.734375 C7.99578125 12.74953125 7.3821875 11.7646875 6.75 10.75 C6.14671875 9.77546875 5.5434375 8.8009375 4.921875 7.796875 C3.13945558 5.20294755 1.29898372 3.13622381 -1 1 C-0.67 0.67 -0.34 0.34 0 0 Z " fill="#6E7C88" transform="translate(103,251)"/>
<path d="M0 0 C-6.4150557 2.87940913 -11.97047248 4.5464821 -19 5 C-19 4.34 -19 3.68 -19 3 C-16.21019334 2.30404181 -13.41859396 1.61793326 -10.625 0.9375 C-9.43390625 0.63875977 -9.43390625 0.63875977 -8.21875 0.33398438 C-2.2265625 -1.11328125 -2.2265625 -1.11328125 0 0 Z " fill="#616F7D" transform="translate(133,252)"/>
<path d="M0 0 C1.98 0.66 3.96 1.32 6 2 C5.8125 3.875 5.8125 3.875 5 6 C2.4375 7.25 2.4375 7.25 0 8 C0 5.36 0 2.72 0 0 Z " fill="#ECEEF0" transform="translate(122,216)"/>
<path d="M0 0 C0 0.66 0 1.32 0 2 C-0.99 2.495 -0.99 2.495 -2 3 C-1.01 3.66 -0.02 4.32 1 5 C-2.57644848 6.2380014 -5.33694766 5.74926071 -9 5 C-9 4.01 -9 3.02 -9 2 C-3.375 0 -3.375 0 0 0 Z " fill="#BDC3C9" transform="translate(169,241)"/>
<path d="M0 0 C0.763125 0.20625 1.52625 0.4125 2.3125 0.625 C0.84955616 3.55088768 -1.08268159 3.64701919 -4.125 4.6875 C-7.9759726 5.99087668 -7.9759726 5.99087668 -11.6875 7.625 C-11.6875 6.635 -11.6875 5.645 -11.6875 4.625 C-10.759375 4.17125 -9.83125 3.7175 -8.875 3.25 C-1.9627809 -0.2738764 -1.9627809 -0.2738764 0 0 Z " fill="#B2B9C0" transform="translate(166.6875,237.375)"/>
<path d="M0 0 C0.33 0 0.66 0 1 0 C1.22527296 3.45745022 1.42733544 6.91587025 1.625 10.375 C1.68945312 11.35984375 1.75390625 12.3446875 1.8203125 13.359375 C1.871875 14.30039063 1.9234375 15.24140625 1.9765625 16.2109375 C2.02893066 17.08024902 2.08129883 17.94956055 2.13525391 18.84521484 C2 21 2 21 0 23 C-0.88099735 20.02181366 -1.06705164 17.54707135 -0.87890625 14.453125 C-0.83056641 13.60878906 -0.78222656 12.76445312 -0.73242188 11.89453125 C-0.64831055 10.58548828 -0.64831055 10.58548828 -0.5625 9.25 C-0.51029297 8.36183594 -0.45808594 7.47367188 -0.40429688 6.55859375 C-0.27498267 4.37200804 -0.14003358 2.18592106 0 0 Z " fill="#8E99A3" transform="translate(93,208)"/>
<path d="M0 0 C0 0.66 0 1.32 0 2 C-2.26676422 2.72464589 -4.53667564 3.42992064 -6.8125 4.125 C-7.45509766 4.33253906 -8.09769531 4.54007812 -8.75976562 4.75390625 C-10.64453125 5.3203125 -10.64453125 5.3203125 -14 6 C-14.99 5.34 -15.98 4.68 -17 4 C-16.22914062 3.79503906 -15.45828125 3.59007812 -14.6640625 3.37890625 C-13.66117187 3.10949219 -12.65828125 2.84007812 -11.625 2.5625 C-10.62726563 2.29566406 -9.62953125 2.02882812 -8.6015625 1.75390625 C-2.5492228 0 -2.5492228 0 0 0 Z " fill="#C7CCD0" transform="translate(131,253)"/>
<path d="M0 0 C1.828125 0.21484375 1.828125 0.21484375 4 1 C5.484375 3.06640625 5.484375 3.06640625 6.75 5.5625 C7.17796875 6.38878906 7.6059375 7.21507812 8.046875 8.06640625 C8.36140625 8.70449219 8.6759375 9.34257812 9 10 C8.01 10.495 8.01 10.495 7 11 C6.0158875 9.73299277 5.03788503 8.4612381 4.0625 7.1875 C3.51722656 6.47980469 2.97195312 5.77210938 2.41015625 5.04296875 C1 3 1 3 0 0 Z " fill="#DDE0E3" transform="translate(103,244)"/>
<path d="M0 0 C0.33 0 0.66 0 1 0 C1 2.97 1 5.94 1 9 C0.34 9 -0.32 9 -1 9 C-1 9.66 -1 10.32 -1 11 C-3.4375 10.1875 -3.4375 10.1875 -6 9 C-6.33 8.01 -6.66 7.02 -7 6 C-4.61435923 6.57584432 -2.33317216 7.22227595 0 8 C0 5.36 0 2.72 0 0 Z " fill="#828E9A" transform="translate(119,215)"/>
<path d="M0 0 C0.33 1.32 0.66 2.64 1 4 C1.5775 4.061875 2.155 4.12375 2.75 4.1875 C5.88690987 5.32027301 7.09167504 7.34197595 9 10 C8.67 10.66 8.34 11.32 8 12 C7.236875 11.175 6.47375 10.35 5.6875 9.5 C3.24565858 6.65944803 3.24565858 6.65944803 0 7 C0 4.69 0 2.38 0 0 Z " fill="#727F8B" transform="translate(101,243)"/>
<path d="M0 0 C0.33 0 0.66 0 1 0 C1 2.64 1 5.28 1 8 C2.32 8 3.64 8 5 8 C5 8.66 5 9.32 5 10 C3.68 10 2.36 10 1 10 C0.67 10.99 0.34 11.98 0 13 C0 12.01 0 11.02 0 10 C-0.66 10 -1.32 10 -2 10 C-2 9.34 -2 8.68 -2 8 C-1.34 8 -0.68 8 0 8 C0 5.36 0 2.72 0 0 Z " fill="#516271" transform="translate(120,216)"/>
<path d="M0 0 C0.99 0 1.98 0 3 0 C3 1.98 3 3.96 3 6 C1.68 5.67 0.36 5.34 -1 5 C-1 1 -1 1 0 0 Z " fill="#D5DADD" transform="translate(117,207)"/>
<path d="M0 0 C1.39317881 4.17953643 0.72456588 7.38038215 -1.0625 11.375 C-1.371875 11.91125 -1.68125 12.4475 -2 13 C-2.66 13 -3.32 13 -4 13 C-3.27991594 8.39146203 -1.68704061 4.32762591 0 0 Z " fill="#8A959F" transform="translate(116,182)"/>
<path d="M0 0 C0 3.59857954 -0.95830515 5.09451118 -3 8 C-3.66 8 -4.32 8 -5 8 C-4.64950425 4.75791433 -4.43778819 3.38472296 -1.9375 1.1875 C-1.298125 0.795625 -0.65875 0.40375 0 0 Z " fill="#DBDFE1" transform="translate(111,168)"/>
<path d="M0 0 C0.66 0.33 1.32 0.66 2 1 C2.625 3.5625 2.625 3.5625 3 6 C2.34 6 1.68 6 1 6 C1 5.34 1 4.68 1 4 C-1.31 4 -3.62 4 -6 4 C-2.25 2 -2.25 2 0 2 C0 1.34 0 0.68 0 0 Z " fill="#606F7D" transform="translate(169,241)"/>
<path d="M0 0 C-0.8125 1.9375 -0.8125 1.9375 -2 4 C-2.99 4.33 -3.98 4.66 -5 5 C-5 4.34 -5 3.68 -5 3 C-5.66 2.67 -6.32 2.34 -7 2 C-4.35261084 0.5393715 -3.10551666 0 0 0 Z " fill="#6F7D89" transform="translate(130,221)"/>
<path d="M0 0 C2.76223278 2.76223278 2.57856291 5.20706617 3 9 C2.34 9 1.68 9 1 9 C0.63877119 7.68942607 0.28619689 6.37646376 -0.0625 5.0625 C-0.35833984 3.96615234 -0.35833984 3.96615234 -0.66015625 2.84765625 C-0.77230469 2.23792969 -0.88445312 1.62820312 -1 1 C-0.67 0.67 -0.34 0.34 0 0 Z " fill="#798691" transform="translate(126,188)"/>
</svg>
