<?xml version="1.0" encoding="UTF-8"?>
<svg version="1.1" xmlns="http://www.w3.org/2000/svg" width="177" height="206">
<path d="M0 0 C58.41 0 116.82 0 177 0 C177 67.98 177 135.96 177 206 C118.59 206 60.18 206 0 206 C0 138.02 0 70.04 0 0 Z " fill="#556574" transform="translate(0,0)"/>
<path d="M0 0 C29.04 0 58.08 0 88 0 C88 67.98 88 135.96 88 206 C49.72 206 11.44 206 -28 206 C-24.6644139 203.49831043 -22.15406316 202.04520675 -18.3984375 200.43359375 C-16.72249512 199.71248413 -16.72249512 199.71248413 -15.01269531 198.97680664 C-13.81225586 198.46883545 -12.61181641 197.96086426 -11.375 197.4375 C-10.75862671 197.17532684 -10.14225342 196.91315369 -9.50720215 196.64303589 C8.64645403 188.92717652 26.97072021 181.29084025 46 176 C46.7532959 175.79036621 47.5065918 175.58073242 48.28271484 175.36474609 C60.72026914 171.93932954 73.20041504 168.73662711 86 167 C85.83757812 166.505 85.67515625 166.01 85.5078125 165.5 C84.79792477 162.00516809 84.85570882 158.54957763 84.875 155 C84.87113281 154.2884375 84.86726563 153.576875 84.86328125 152.84375 C84.86966022 149.42461983 84.92799268 146.26706994 86 143 C80.16314948 138.636393 74.08686711 134.69864328 67.8125 131 C67.14798828 130.59015869 66.48347656 130.18031738 65.79882812 129.75805664 C61.15167697 127.08086839 58.37678528 126.62733835 53 128 C51.3394982 128.47198357 49.68990044 128.98665061 48.0625 129.5625 C47.29035156 129.83191406 46.51820313 130.10132813 45.72265625 130.37890625 C45.15417969 130.58386719 44.58570313 130.78882813 44 131 C43.02574982 129.21693836 42.07152016 127.42293543 41.125 125.625 C40.59132813 124.62726563 40.05765625 123.62953125 39.5078125 122.6015625 C35.45450967 112.91983915 35.67714408 102.97797849 35.78515625 92.6328125 C35.61994048 81.83024272 31.60117434 75.15308612 24 67.625 C19.57458457 62.96108912 17.02816552 58.38370726 14.34375 52.58984375 C12.01673015 48.10491886 8.52374329 45.99752564 4.3984375 43.296875 C3.48320313 42.68328125 2.56796875 42.0696875 1.625 41.4375 C0.75101563 40.87933594 -0.12296875 40.32117187 -1.0234375 39.74609375 C-1.67570312 39.16988281 -2.32796875 38.59367187 -3 38 C-3 32.89436404 -1.53596353 31.67213454 1.77734375 28.0390625 C5.44274019 24.67643167 9.62477706 22.32406209 14 20 C13.32094664 16.09864628 12.44571346 14.10417477 10 11 C9.505 9.989375 9.01 8.97875 8.5 7.9375 C6.2030571 3.43932016 4.56764579 2.2838229 0 0 Z " fill="#FEFEFE" transform="translate(89,0)"/>
<path d="M0 0 C0.66 0 1.32 0 2 0 C0.26700246 5.77375561 -2.48217653 10.65565047 -5.44140625 15.87890625 C-6.84444745 18.68850505 -7.58023464 20.91213703 -8 24 C-6.68 24 -5.36 24 -4 24 C-3.62488281 22.78763672 -3.62488281 22.78763672 -3.2421875 21.55078125 C-1.7591829 17.31162658 0.00387861 13.26710111 1.875 9.1875 C2.21402344 8.41212891 2.55304688 7.63675781 2.90234375 6.83789062 C3.24136719 6.10119141 3.58039063 5.36449219 3.9296875 4.60546875 C4.23116699 3.93668701 4.53264648 3.26790527 4.84326172 2.57885742 C6 1 6 1 8.12939453 0.2746582 C8.74669434 0.184021 9.36399414 0.09338379 10 0 C16.51218344 8.31342567 20.74719535 18.69010577 23 29 C23.99 29 24.98 29 26 29 C24.98494105 22.15213964 23.02230119 16.18445999 20.21875 9.859375 C18.97757487 6.94738719 17.96308252 4.01409158 17 1 C37.6691818 14.33968471 37.6691818 14.33968471 42.75 25.8125 C45.06944525 30.80670977 48.8775999 34.45627298 52.66015625 38.38671875 C58.15106581 44.51930388 58.40995403 48.86673863 58.5 56.875 C58.8322641 68.78970969 59.50558363 80.47221341 65.328125 91.16796875 C66 93 66 93 65.98046875 95.08984375 C65 97 65 97 62.53515625 98.2734375 C34.70397665 107.10177568 4.29913398 113.51462278 -25 114 C-24.67 115.65 -24.34 117.3 -24 119 C-26.475 119.99 -26.475 119.99 -29 121 C-29.33 125.62 -29.66 130.24 -30 135 C-38.91 135 -47.82 135 -57 135 C-57 131 -57 131 -55.35546875 129.03515625 C-54.64003906 128.38417969 -53.92460938 127.73320312 -53.1875 127.0625 C-47.75454013 121.92726663 -47.75454013 121.92726663 -45.6875 114.9375 C-45.80222342 112.06547672 -45.80222342 112.06547672 -47.0625 110.0625 C-48.55850692 106.77128479 -47.78873379 104.49296392 -47 101 C-46.33348065 99.59447969 -45.65954751 98.19246417 -44.98046875 96.79296875 C-42.31259874 90.22534995 -42.45215857 83.65008791 -42.44320679 76.68328857 C-42.43357616 72.8933519 -42.35237205 69.10525887 -42.265625 65.31640625 C-42.24912399 64.5831311 -42.23262299 63.84985596 -42.21562195 63.09436035 C-41.92429794 52.1932839 -41.52612556 38.19913806 -33.12890625 30.22265625 C-29.16163796 26.99085303 -24.9133755 24.30578023 -20.5625 21.625 C-12.09745528 16.33434705 -3.26430653 9.79291959 0 0 Z " fill="#FCFCFD" transform="translate(62,37)"/>
<path d="M0 0 C19.8 0 39.6 0 60 0 C58.02 0.99 58.02 0.99 56 2 C48.284529 6.27800913 41.13883854 10.28100407 38 19 C38.26145856 22.79114906 38.97666713 26.34523974 40 30 C41.794375 29.87625 41.794375 29.87625 43.625 29.75 C48.12260039 29.75796035 50.54891166 31.03045887 54 34 C55.875 36.75 55.875 36.75 57 39 C50.30013553 47.10015769 43.40090439 53.69630901 34.3125 59.0625 C25.51409407 64.33949025 21.56237237 69.11977348 19 79 C18.82041748 79.67643555 18.64083496 80.35287109 18.45581055 81.04980469 C16.38667007 89.97253672 16.61961802 99.08407977 16.54370117 108.19311523 C16.44282281 118.37517893 16.19056317 128.07466839 11.25 137.25 C9.17435481 141.81641941 10.64409901 145.77659036 12 150.4375 C12 155.16466028 10.24353886 156.70947268 7.0546875 160.0078125 C6.37664063 160.66523438 5.69859375 161.32265625 5 162 C3.35 163.65 1.7 165.3 0 167 C0 111.89 0 56.78 0 0 Z " fill="#FDFDFE" transform="translate(0,0)"/>
<path d="M0 0 C2.475 0.99 2.475 0.99 5 2 C8.11044471 2.18853157 8.11044471 2.18853157 11.4453125 2.02734375 C32.81576618 1.69327817 32.81576618 1.69327817 37.93359375 4.91015625 C40.24033253 7.18261956 42.10479281 9.39023195 43.81933594 12.13574219 C45.20961042 14.33097295 46.7375686 16.39232141 48.2890625 18.4765625 C57 30.30803969 57 30.30803969 57 32 C38.19 32 19.38 32 0 32 C0 21.44 0 10.88 0 0 Z " fill="#FEFEFE" transform="translate(0,174)"/>
<path d="M0 0 C2.49169372 0.29127029 3.68844933 0.66589265 5.41625977 2.51879883 C6.04745728 3.47822388 6.04745728 3.47822388 6.69140625 4.45703125 C7.16126953 5.15763672 7.63113281 5.85824219 8.11523438 6.58007812 C8.59283203 7.31677734 9.07042969 8.05347656 9.5625 8.8125 C10.5215716 10.25688495 11.48119097 11.70090636 12.44140625 13.14453125 C12.88500488 13.81822754 13.32860352 14.49192383 13.78564453 15.18603516 C15.1206407 17.18020917 16.52461489 19.10733426 18 21 C30.0307688 18.38760449 41.82955625 15.11667528 53.63964844 11.64257812 C54.80786133 11.30162109 55.97607422 10.96066406 57.1796875 10.609375 C58.22882324 10.29967773 59.27795898 9.98998047 60.35888672 9.67089844 C63 9 63 9 66 9 C66.495 15.93 66.495 15.93 67 23 C64.26396484 24.06927734 64.26396484 24.06927734 61.47265625 25.16015625 C48.26841259 30.32895833 35.08103755 35.52465143 22 41 C21.62302979 40.47156494 21.24605957 39.94312988 20.85766602 39.39868164 C10.92093366 25.3439178 10.92093366 25.3439178 -1 13 C-0.67 12.01 -0.34 11.02 0 10 C0.67546875 10.78246094 1.3509375 11.56492188 2.046875 12.37109375 C2.9474593 13.39363217 3.8485264 14.41574551 4.75 15.4375 C5.1934375 15.95376953 5.636875 16.47003906 6.09375 17.00195312 C8.52915356 19.74178213 10.24061317 21.65743905 14 22 C11.81649288 17.03140727 9.09950856 13.63885059 5.375 9.8125 C0.12793542 4.38380626 0.12793542 4.38380626 -1 1 C-0.67 0.67 -0.34 0.34 0 0 Z " fill="#F6F6F7" transform="translate(37,160)"/>
<path d="M0 0 C1.32 0 2.64 0 4 0 C4 1.65 4 3.3 4 5 C4.66386719 5.09796875 5.32773438 5.1959375 6.01171875 5.296875 C11.37285726 6.20474663 15.02036413 7.02036413 19 11 C18.67 12.32 18.34 13.64 18 15 C14 13 14 13 12.125 11.9375 C9.45429728 10.65443128 9.45429728 10.65443128 4 10 C4.33 14.29 4.66 18.58 5 23 C7.5678125 23.86625 7.5678125 23.86625 10.1875 24.75 C18.53920429 27.8603641 18.53920429 27.8603641 21 31 C21.92306852 35.46429502 21.61627469 38.86605457 19.4375 42.875 C15.49254285 46.31419341 11.79275254 47.9022135 6.5625 48.1875 C5.2940625 48.0946875 5.2940625 48.0946875 4 48 C4 50.31 4 52.62 4 55 C2.68 55 1.36 55 0 55 C0 52.69 0 50.38 0 48 C-1.19625 47.938125 -2.3925 47.87625 -3.625 47.8125 C-8.47199274 47.2001575 -10.72274991 45.6049751 -14 42 C-14.375 39.1875 -14.375 39.1875 -14 37 C-11.68888893 37.39846743 -10.33366284 37.65044845 -8.6875 39.375 C-6.4445822 41.72662996 -6.4445822 41.72662996 0 44 C0 38.39 0 32.78 0 27 C-1.4025 26.608125 -2.805 26.21625 -4.25 25.8125 C-8.49988707 24.37356186 -10.8481543 23.11657438 -13 19 C-13.59337198 14.84639617 -13.48074603 12.80124338 -11.3125 9.1875 C-7.61619923 5.69099927 -5.0614749 5 0 5 C0 3.35 0 1.7 0 0 Z " fill="#516271" transform="translate(69,76)"/>
<path d="M0 0 C1.35931641 0.83917969 1.35931641 0.83917969 2.74609375 1.6953125 C6.2128046 4.37828706 8.83299327 7.4659505 11.5625 10.875 C-3.04242169 15.12534873 -17.70270617 19.09975281 -32.4375 22.875 C-47.4375 3.76820388 -47.4375 3.76820388 -47.4375 -0.125 C-46.74301758 -0.1751123 -46.04853516 -0.22522461 -45.33300781 -0.27685547 C-42.11739126 -0.51218353 -38.90247391 -0.75605521 -35.6875 -1 C-34.59566406 -1.07863281 -33.50382812 -1.15726563 -32.37890625 -1.23828125 C-25.84911854 -1.74057261 -19.50948725 -2.54090754 -13.08496094 -3.82470703 C-7.83615905 -4.42006173 -4.37570795 -2.76817837 0 0 Z " fill="#FAFAFB" transform="translate(89.4375,154.125)"/>
<path d="M0 0 C3.22434656 0.13567795 5.44524949 0.70225096 8.40625 1.9453125 C9.23640625 2.28175781 10.0665625 2.61820313 10.921875 2.96484375 C13.12665502 4.1173424 14.52015259 5.27892291 16.15625 7.1328125 C15.51558594 7.5453125 14.87492187 7.9578125 14.21484375 8.3828125 C9.65763591 11.42547884 5.82680942 14.25810164 2.40625 18.5703125 C-0.43537877 22.07341305 -0.43537877 22.07341305 -4.28125 22.6328125 C-5.126875 22.4678125 -5.9725 22.3028125 -6.84375 22.1328125 C-6.534375 21.5553125 -6.225 20.9778125 -5.90625 20.3828125 C-4.91791636 18.28987066 -4.3268887 16.38745975 -3.84375 14.1328125 C-5.72255872 14.18049653 -5.72255872 14.18049653 -7.84375 15.1328125 C-10.10700246 18.11044293 -10.10700246 18.11044293 -11.84375 21.1328125 C-13.6171875 20.94921875 -13.6171875 20.94921875 -15.84375 20.1328125 C-17.6953125 17.84765625 -17.6953125 17.84765625 -19.46875 15.0703125 C-20.54620318 13.39296727 -21.66115563 11.737762 -22.84375 10.1328125 C-23.50375 10.1328125 -24.16375 10.1328125 -24.84375 10.1328125 C-24.26740861 14.88762896 -22.29306479 18.10329462 -19.84375 22.1328125 C-22.03125 22.4453125 -22.03125 22.4453125 -24.84375 22.1328125 C-27.40625 19.7578125 -27.40625 19.7578125 -29.84375 17.1328125 C-32.00995544 15.83761255 -32.00995544 15.83761255 -33.84375 15.1328125 C-31.98808716 9.87510113 -29.2250735 4.69956012 -24.84375 1.1328125 C-22.68652344 0.70043945 -22.68652344 0.70043945 -20.203125 0.62109375 C-18.84380859 0.56791992 -18.84380859 0.56791992 -17.45703125 0.51367188 C-16.03970703 0.47983398 -16.03970703 0.47983398 -14.59375 0.4453125 C-13.66433594 0.41115234 -12.73492187 0.37699219 -11.77734375 0.34179688 C-7.85192926 0.20576766 -3.92551765 0.13563781 0 0 Z " fill="#FAFAFB" transform="translate(82.84375,10.8671875)"/>
<path d="M0 0 C2.47004218 1.20201384 4.77284148 2.41890931 7.125 3.8125 C7.73214844 4.15603516 8.33929688 4.49957031 8.96484375 4.85351562 C12.45350468 6.87906713 15.29534993 9.00604656 18 12 C-1.63418778 18.66651781 -1.63418778 18.66651781 -11.0625 21.5 C-12.12597656 21.8196875 -13.18945312 22.139375 -14.28515625 22.46875 C-17.13691152 23.02679132 -18.36933232 23.17270728 -21 22 C-23.47265625 20.0390625 -23.47265625 20.0390625 -26.0625 17.625 C-26.91972656 16.83351562 -27.77695313 16.04203125 -28.66015625 15.2265625 C-30.46700553 13.50719007 -32.24134261 11.76785506 -34 10 C-29.95572993 8.48113176 -25.91055957 6.965175 -21.859375 5.46484375 C-21.18132812 5.21283203 -20.50328125 4.96082031 -19.8046875 4.70117188 C-18.41989067 4.18648028 -17.03445876 3.67349454 -15.6484375 3.16210938 C-11.66320887 1.68857261 -11.66320887 1.68857261 -7.890625 -0.24609375 C-4.94621769 -1.42020658 -3.03086733 -0.81885291 0 0 Z " fill="#FBFBFB" transform="translate(150,132)"/>
<path d="M0 0 C0.95261719 0.67804688 1.90523437 1.35609375 2.88671875 2.0546875 C5.25326508 4.07444523 6.06147476 5.36662435 7.3125 8.125 C4.40024159 9.01785289 1.48433829 9.88958136 -1.4375 10.75 C-2.2625 11.00523437 -3.0875 11.26046875 -3.9375 11.5234375 C-4.73671875 11.75546875 -5.5359375 11.9875 -6.359375 12.2265625 C-7.0925293 12.44650879 -7.82568359 12.66645508 -8.58105469 12.89306641 C-11.25266351 13.18722825 -12.43676429 12.53664823 -14.6875 11.125 C-16.17917855 9.87199002 -17.63582826 8.57655442 -19.0625 7.25 C-22.45447964 4.16077556 -25.83542643 1.59427793 -29.6875 -0.875 C-29.6875 -1.205 -29.6875 -1.535 -29.6875 -1.875 C-26.63028436 -2.60758401 -23.56633405 -3.30666407 -20.5 -4 C-19.63568359 -4.20753906 -18.77136719 -4.41507813 -17.88085938 -4.62890625 C-9.96246647 -6.38854912 -6.55412314 -4.73899763 0 0 Z " fill="#FAFAFB" transform="translate(118.6875,149.875)"/>
<path d="M0 0 C0 0.66 0 1.32 0 2 C-13.86 6.455 -13.86 6.455 -28 11 C-28 11.66 -28 12.32 -28 13 C-20.87270675 11.75190256 -14.02367144 9.90741239 -7.1015625 7.8046875 C-4 7 -4 7 0 7 C0 7.66 0 8.32 0 9 C-2.22844214 9.6483289 -4.4577846 10.29356369 -6.6875 10.9375 C-7.92886719 11.29714844 -9.17023438 11.65679687 -10.44921875 12.02734375 C-13.29639862 12.80726431 -16.09802254 13.47287216 -19 14 C-19 14.99 -19 15.98 -19 17 C-18.39414063 16.86722656 -17.78828125 16.73445313 -17.1640625 16.59765625 C-11.12271632 15.32432636 -5.15262108 14.49744596 1 14 C1 14.66 1 15.32 1 16 C-3.94728352 17.1420897 -8.89520663 18.2813502 -13.84375 19.41796875 C-15.52784926 19.80520762 -17.21176963 20.19322538 -18.89550781 20.58203125 C-21.31268694 21.14006082 -23.73049107 21.69530593 -26.1484375 22.25 C-26.9036972 22.42499023 -27.65895691 22.59998047 -28.43710327 22.78027344 C-33.77225659 24 -33.77225659 24 -36 24 C-36 19.71 -36 15.42 -36 11 C-31.19570674 9.42970152 -26.39019297 7.86321853 -21.58349609 6.30029297 C-19.94773601 5.76781814 -18.3123173 5.23429345 -16.67724609 4.69970703 C-14.32998716 3.93247079 -11.98153537 3.16899111 -9.6328125 2.40625 C-8.89942657 2.16563843 -8.16604065 1.92502686 -7.41043091 1.67712402 C-2.22774341 0 -2.22774341 0 0 0 Z " fill="#EDEFF1" transform="translate(169,148)"/>
<path d="M0 0 C0 3.96 0 7.92 0 12 C-6.6374764 14.43654197 -13.28147525 16.797205 -20 19 C-20 14.38 -20 9.76 -20 5 C-17.41877492 4.15960114 -14.83536099 3.32749444 -12.25 2.5 C-11.15558594 2.14228516 -11.15558594 2.14228516 -10.0390625 1.77734375 C-9.33007812 1.55175781 -8.62109375 1.32617188 -7.890625 1.09375 C-7.24125977 0.88427734 -6.59189453 0.67480469 -5.92285156 0.45898438 C-4 0 -4 0 0 0 Z " fill="#F8F8F9" transform="translate(128,162)"/>
<path d="M0 0 C0 0.99 0 1.98 0 3 C-5.24049988 5.05238499 -10.4844917 7.09526615 -15.734375 9.12353516 C-17.64735955 9.86357983 -19.55829156 10.608927 -21.46875 11.35546875 C-22.4071875 11.71253906 -23.345625 12.06960937 -24.3125 12.4375 C-25.51326172 12.89962891 -25.51326172 12.89962891 -26.73828125 13.37109375 C-29.24660629 14.06857273 -31.40874469 14.11465731 -34 14 C-34 12.68 -34 11.36 -34 10 C-29.96774359 8.39876083 -25.92935394 6.81447322 -21.88452148 5.24536133 C-20.51033083 4.70957756 -19.13790071 4.16925478 -17.76733398 3.62426758 C-15.79339205 2.84027541 -13.8136297 2.07299198 -11.83203125 1.30859375 C-10.64327393 0.84251709 -9.4545166 0.37644043 -8.22973633 -0.10375977 C-4.93275514 -1.01866021 -3.22483109 -1.00227644 0 0 Z " fill="#566675" transform="translate(93,182)"/>
<path d="M0 0 C0 1.32 0 2.64 0 4 C-7.60431279 7.02883645 -15.26094132 9.17420558 -23.203125 11.0703125 C-25.72996295 11.68902385 -28.24203291 12.37157052 -30.734375 13.1171875 C-34 14 -34 14 -38 14 C-38 12.68 -38 11.36 -38 10 C-5.46666667 0 -5.46666667 0 0 0 Z " fill="#546473" transform="translate(96,173)"/>
<path d="M0 0 C0.33 4.62 0.66 9.24 1 14 C-11.625 19.125 -11.625 19.125 -15 18 C-13.35 17.34 -11.7 16.68 -10 16 C-10.75150023 12.72226496 -10.75150023 12.72226496 -14 11 C-9.25 8 -9.25 8 -7 8 C-7 6.68 -7 5.36 -7 4 C-7.66 4 -8.32 4 -9 4 C-9 3.34 -9 2.68 -9 2 C-3.375 0 -3.375 0 0 0 Z " fill="#F7F7F8" transform="translate(103,169)"/>
<path d="M0 0 C10.67348703 2.91095101 10.67348703 2.91095101 13 6 C12.86029504 8.79409928 12.4184998 10.43502528 10.75 12.6875 C7.1982457 15.35131572 4.43115961 16 0 16 C0 10.72 0 5.44 0 0 Z " fill="#F2F4F5" transform="translate(73,104)"/>
<path d="M0 0 C0 3.96 0 7.92 0 12 C-6.20805369 10.75838926 -6.20805369 10.75838926 -9 7 C-9 4.9375 -9 4.9375 -8 3 C-5.07304769 0.17397708 -4.24894725 0 0 0 Z " fill="#F1F3F4" transform="translate(69,86)"/>
<path d="M0 0 C0 0.99 0 1.98 0 3 C-5.45928227 4.4478966 -10.92154326 5.88368403 -16.38623047 7.31103516 C-18.84565799 7.95931691 -21.3000364 8.62401372 -23.75390625 9.29296875 C-25.19000076 9.67486822 -26.62619359 10.05639825 -28.0625 10.4375 C-28.73410156 10.62538086 -29.40570313 10.81326172 -30.09765625 11.00683594 C-31.97265625 11.49609375 -31.97265625 11.49609375 -35 12 C-35.66 11.34 -36.32 10.68 -37 10 C-32.05304547 8.57248281 -27.10511882 7.1484057 -22.15625 5.72753906 C-20.47205722 5.24346359 -18.78813634 4.75844114 -17.10449219 4.27246094 C-14.68755432 3.57499359 -12.26966629 2.88091271 -9.8515625 2.1875 C-9.0963028 1.96876221 -8.34104309 1.75002441 -7.56289673 1.5246582 C-2.22774341 0 -2.22774341 0 0 0 Z " fill="#D7DBDE" transform="translate(94,171)"/>
<path d="M0 0 C0.66 0.33 1.32 0.66 2 1 C1.29875 1.78375 0.5975 2.5675 -0.125 3.375 C-3.1537928 6.96468036 -5.38189787 10.93384369 -7.66796875 15.0234375 C-8.10753906 15.67570312 -8.54710937 16.32796875 -9 17 C-9.66 17 -10.32 17 -11 17 C-11.41078406 13.6452635 -11.63438034 11.04875672 -9.83984375 8.08203125 C-6.99579512 4.67062765 -4.11462436 1.82872194 0 0 Z " fill="#EDEFF0" transform="translate(53,8)"/>
<path d="M0 0 C0.67813248 -0.00191345 1.35626495 -0.0038269 2.0549469 -0.00579834 C3.48984142 -0.00715981 4.92474826 -0.00346599 6.35961914 0.00488281 C8.55448167 0.01556695 10.74852265 0.00499544 12.94335938 -0.0078125 C14.33724139 -0.00649057 15.73112289 -0.00392749 17.125 0 C18.39529053 0.00225586 19.66558105 0.00451172 20.97436523 0.00683594 C24.12890625 0.265625 24.12890625 0.265625 27.12890625 2.265625 C26.79890625 2.925625 26.46890625 3.585625 26.12890625 4.265625 C25.10796875 3.770625 25.10796875 3.770625 24.06640625 3.265625 C20.09403198 1.91332738 16.28360156 1.68608062 12.19824219 2.78491211 C9.87582489 3.32441655 7.95906169 3.2890804 5.58203125 3.14453125 C4.73769531 3.09619141 3.89335938 3.04785156 3.0234375 2.99804688 C2.15074219 2.94197266 1.27804688 2.88589844 0.37890625 2.828125 C-0.50925781 2.77591797 -1.39742188 2.72371094 -2.3125 2.66992188 C-4.49908571 2.54060767 -6.68517269 2.40565858 -8.87109375 2.265625 C-6.00806566 -0.59740309 -4.00229536 0.00711384 0 0 Z " fill="#ECEDEF" transform="translate(65.87109375,4.734375)"/>
<path d="M0 0 C2.50237731 0.37723104 3.71983099 0.69716889 5.46386719 2.58227539 C5.90375977 3.24735107 6.34365234 3.91242676 6.796875 4.59765625 C7.28027344 5.31630859 7.76367188 6.03496094 8.26171875 6.77539062 C8.75285156 7.53013672 9.24398437 8.28488281 9.75 9.0625 C10.25660156 9.82111328 10.76320313 10.57972656 11.28515625 11.36132812 C12.53383068 13.23433977 13.77145051 15.1137518 15 17 C14.34 17.66 13.68 18.32 13 19 C12.40832031 18.27554688 11.81664062 17.55109375 11.20703125 16.8046875 C7.15900123 11.85195909 3.10802001 6.90312066 -1 2 C-0.67 1.34 -0.34 0.68 0 0 Z " fill="#EAECEE" transform="translate(37,160)"/>
<path d="M0 0 C-2.60540498 1.73693665 -4.78501252 2.80682023 -7.66796875 3.9453125 C-8.56064453 4.29980469 -9.45332031 4.65429688 -10.37304688 5.01953125 C-11.30181641 5.38433594 -12.23058594 5.74914062 -13.1875 6.125 C-14.59805664 6.68380859 -14.59805664 6.68380859 -16.03710938 7.25390625 C-18.35686205 8.17238701 -20.6778419 9.08762171 -23 10 C-22.75927734 8.12231445 -22.75927734 8.12231445 -22 6 C-20.18994141 4.88745117 -20.18994141 4.88745117 -17.8515625 4.04296875 C-17.01109375 3.73552734 -16.170625 3.42808594 -15.3046875 3.11132812 C-14.42039062 2.80646484 -13.53609375 2.50160156 -12.625 2.1875 C-11.7484375 1.86330078 -10.871875 1.53910156 -9.96875 1.20507812 C-3.40992698 -1.13664233 -3.40992698 -1.13664233 0 0 Z " fill="#E8EAEC" transform="translate(89,188)"/>
<path d="M0 0 C0 0.66 0 1.32 0 2 C-2.18386418 2.67848208 -4.37230084 3.3422551 -6.5625 4 C-7.78066406 4.37125 -8.99882812 4.7425 -10.25390625 5.125 C-13.97923349 5.99514943 -17.19065949 6.15688404 -21 6 C-17.69504523 3.79669682 -14.87667528 2.95561629 -11.0625 1.875 C-9.83660156 1.52179688 -8.61070312 1.16859375 -7.34765625 0.8046875 C-4 0 -4 0 0 0 Z " fill="#E4E6E9" transform="translate(169,155)"/>
<path d="M0 0 C0 0.66 0 1.32 0 2 C-2.45592158 2.55571948 -4.91352746 3.09497489 -7.375 3.625 C-8.42300781 3.86476562 -8.42300781 3.86476562 -9.4921875 4.109375 C-11.31170787 4.49427354 -13.15634853 4.75556082 -15 5 C-15.66 4.34 -16.32 3.68 -17 3 C-5.47835991 -0.44419134 -5.47835991 -0.44419134 0 0 Z " fill="#D1D6DA" transform="translate(170,162)"/>
<path d="M0 0 C4.15933167 3.39990314 7.68848842 6.74234226 11 11 C11.99 11.66 12.98 12.32 14 13 C9.40265613 12.52638376 7.37725312 10.89410021 4.1875 7.625 C3.39730469 6.83351562 2.60710938 6.04203125 1.79296875 5.2265625 C0 3 0 3 0 0 Z " fill="#E5E8EA" transform="translate(36,170)"/>
<path d="M0 0 C-3.42346555 3.14958831 -6.44262737 3.56179109 -11 4 C-10.67 3.01 -10.34 2.02 -10 1 C-3.84210526 -1.28070175 -3.84210526 -1.28070175 0 0 Z " fill="#EDEFF0" transform="translate(90,180)"/>
<path d="M0 0 C2.27057377 -0.05398987 4.54151288 -0.09278742 6.8125 -0.125 C8.07707031 -0.14820313 9.34164062 -0.17140625 10.64453125 -0.1953125 C14 0 14 0 17 2 C16.67 2.66 16.34 3.32 16 4 C15.34 3.67 14.68 3.34 14 3 C11.23157127 2.07719042 9.71056559 1.91629327 6.875 2 C3 2 3 2 0 0 Z " fill="#DCDFE2" transform="translate(76,5)"/>
<path d="M0 0 C-3.6441774 2.4294516 -5.71241272 2.16179575 -10 2 C-6.19832777 -0.53444815 -4.31588991 -1.33941411 0 0 Z " fill="#D6DADE" transform="translate(158,159)"/>
</svg>
